<?xml version="1.0" encoding="UTF-8" standalone="no"?>
<!-- Creator: fig2dev Version 3.2.9 -->
<!-- CreationDate: 2024-10-26 21:51:24 -->
<!-- Magnification: 1 -->
<svg	xmlns="http://www.w3.org/2000/svg"
	xmlns:xlink="http://www.w3.org/1999/xlink"
	width="416pt" height="416pt"
	viewBox="-15 -15 6930 6930">
<g fill="none">
<!-- Circle -->
<circle cx="3450" cy="3450" r="3457" fill="#ffff00"
	stroke="#ffff00" stroke-width="8px"/>
<!-- Circle -->
<circle cx="4425" cy="2025" r="270" fill="#ffffff"
	stroke="#000000" stroke-width="135px"/>
<!-- Line -->
<polyline points=" 3075,4650 2775,5925"
	stroke="#000000" stroke-width="135px"/>
<!-- Line -->
<polyline points=" 3075,4575 3825,6000"
	stroke="#000000" stroke-width="135px"/>
<!-- Line -->
<polyline points=" 5175,1950 6075,1875 5250,2250" fill="#ff0000"
	stroke="#000000" stroke-width="30px"/>
<!-- Line -->
<polyline points=" 1050,3975 1052,3976 1055,3979 1062,3985 1072,3993 1087,4005 1107,4020 1131,4039
 1160,4061 1193,4087 1229,4115 1269,4145 1311,4177 1355,4210 1400,4243 1445,4276
 1490,4309 1534,4340 1578,4371 1620,4399 1661,4427 1701,4452 1740,4476 1777,4499
 1813,4520 1848,4539 1882,4557 1916,4574 1949,4589 1981,4603 2014,4616 2046,4628
 2079,4640 2113,4650 2144,4659 2176,4668 2209,4676 2242,4683 2277,4690 2311,4697
 2347,4703 2383,4708 2420,4713 2458,4717 2497,4720 2536,4723 2576,4726 2616,4727
 2657,4728 2698,4729 2740,4729 2782,4728 2824,4726 2866,4724 2908,4722 2950,4719
 2991,4715 3032,4711 3073,4706 3113,4701 3153,4695 3193,4689 3231,4682 3269,4675
 3307,4668 3344,4660 3380,4652 3416,4643 3452,4634 3488,4625 3523,4615 3558,4605
 3593,4594 3629,4583 3664,4571 3700,4559 3736,4546 3773,4532 3809,4518 3846,4503
 3883,4487 3920,4471 3958,4454 3995,4436 4032,4418 4070,4399 4107,4380 4143,4360
 4180,4339 4216,4319 4252,4297 4287,4276 4321,4254 4355,4231 4388,4209 4420,4186
 4451,4163 4482,4140 4512,4117 4541,4094 4569,4070 4596,4047 4623,4023 4649,3999
 4675,3975 4700,3950 4725,3925 4749,3899 4773,3873 4797,3847 4820,3819 4844,3791
 4867,3762 4890,3732 4912,3702 4935,3671 4957,3639 4979,3606 5000,3573 5022,3539
 5042,3505 5062,3470 5082,3434 5101,3399 5120,3363 5137,3327 5154,3291 5170,3254
 5186,3218 5201,3182 5214,3147 5227,3111 5240,3076 5251,3041 5261,3007 5271,2973
 5280,2939 5288,2906 5295,2873 5302,2840 5307,2807 5313,2775 5317,2738 5322,2702
 5325,2665 5327,2628 5329,2590 5329,2552 5329,2514 5328,2475 5326,2436 5323,2396
 5319,2357 5314,2317 5307,2278 5300,2238 5292,2199 5283,2160 5274,2122 5263,2084
 5251,2047 5239,2011 5225,1976 5211,1941 5197,1908 5181,1876 5165,1846 5149,1816
 5132,1788 5114,1760 5096,1734 5077,1709 5058,1685 5038,1663 5017,1640 4995,1619
 4973,1598 4949,1578 4925,1559 4900,1540 4874,1523 4847,1505 4819,1489 4790,1473
 4761,1458 4730,1445 4699,1432 4668,1420 4636,1408 4604,1399 4571,1390 4539,1382
 4507,1375 4474,1370 4442,1365 4411,1362 4379,1360 4349,1359 4319,1359 4289,1360
 4260,1362 4232,1365 4204,1369 4177,1374 4151,1380 4125,1388 4101,1395 4077,1403
 4053,1413 4030,1423 4006,1435 3983,1447 3960,1461 3937,1475 3914,1491 3890,1508
 3868,1527 3845,1546 3822,1566 3800,1588 3778,1611 3756,1635 3735,1659 3714,1685
 3694,1711 3674,1739 3655,1767 3636,1795 3618,1825 3601,1854 3584,1885 3568,1915
 3553,1947 3538,1978 3524,2010 3511,2042 3498,2075 3486,2107 3474,2141 3463,2175
 3452,2208 3442,2241 3432,2276 3423,2311 3413,2347 3404,2383 3395,2421 3386,2459
 3377,2499 3368,2539 3358,2580 3349,2621 3340,2663 3331,2705 3322,2748 3312,2791
 3303,2834 3293,2877 3283,2920 3273,2962 3263,3004 3253,3046 3243,3087 3232,3127
 3222,3166 3211,3204 3200,3241 3189,3277 3177,3312 3165,3346 3153,3378 3141,3410
 3128,3440 3115,3470 3102,3498 3088,3525 3071,3555 3054,3583 3036,3611 3017,3637
 2997,3663 2976,3688 2954,3712 2931,3736 2907,3759 2882,3781 2856,3802 2829,3823
 2802,3842 2774,3861 2745,3879 2715,3896 2685,3912 2654,3927 2624,3941 2593,3954
 2561,3967 2530,3978 2499,3989 2468,3998 2437,4007 2406,4015 2376,4022 2345,4029
 2315,4035 2285,4041 2255,4045 2225,4050 2195,4054 2164,4058 2134,4061 2102,4064
 2070,4066 2037,4068 2002,4070 1966,4071 1928,4072 1889,4073 1847,4073 1804,4073
 1759,4073 1711,4072 1662,4071 1611,4070 1559,4068 1507,4067 1455,4065 1404,4063
 1355,4061 1310,4059 1268,4057 1231,4055 1200,4054 1175,4053 1155,4052 1141,4051
 1132,4050 1127,4050 1125,4050" fill="#000000"
	stroke="#000000" stroke-width="30px" stroke-linejoin="bevel"/>
<!-- Circle -->
<circle cx="4425" cy="1950" r="237" fill="#ffffff"
	stroke="#000000" stroke-width="135px"/>
</g>
</svg>
