<?xml version="1.0" encoding="UTF-8" standalone="no"?>
<!-- Creator: fig2dev Version 3.2.9 -->
<!-- CreationDate: 2024-08-20 10:29:51 -->
<!-- Magnification: 3 -->
<svg	xmlns="http://www.w3.org/2000/svg"
	xmlns:xlink="http://www.w3.org/1999/xlink"
	width="1841pt" height="1841pt"
	viewBox="-12 -12 10224 10224">
<g fill="none">
<!-- Line -->
<rect x="0" y="0" width="10200" height="10200" fill="#ffff00"
	stroke="#ffff00" stroke-width="8px"/>
<!-- Circle -->
<circle cx="6000" cy="3675" r="270" fill="#ffffff"
	stroke="#000000" stroke-width="135px"/>
<!-- Line -->
<polyline points=" 4650,6300 4350,7575"
	stroke="#000000" stroke-width="135px"/>
<!-- Line -->
<polyline points=" 4650,6225 5400,7650"
	stroke="#000000" stroke-width="135px"/>
<!-- Line -->
<polyline points=" 6750,3600 7650,3525 6825,3900" fill="#ff0000"
	stroke="#000000" stroke-width="30px"/>
<!-- Line -->
<polyline points=" 2625,5625 2627,5626 2630,5629 2637,5635 2647,5643 2662,5655 2682,5670 2706,5689
 2735,5711 2768,5737 2804,5765 2844,5795 2886,5827 2930,5860 2975,5893 3020,5926
 3065,5959 3109,5990 3153,6021 3195,6049 3236,6077 3276,6102 3315,6126 3352,6149
 3388,6170 3423,6189 3457,6207 3491,6224 3524,6239 3556,6253 3589,6266 3621,6278
 3654,6290 3688,6300 3719,6309 3751,6318 3784,6326 3817,6333 3852,6340 3886,6347
 3922,6353 3958,6358 3995,6363 4033,6367 4072,6370 4111,6373 4151,6376 4191,6377
 4232,6378 4273,6379 4315,6379 4357,6378 4399,6376 4441,6374 4483,6372 4525,6369
 4566,6365 4607,6361 4648,6356 4688,6351 4728,6345 4768,6339 4806,6332 4844,6325
 4882,6318 4919,6310 4955,6302 4991,6293 5027,6284 5063,6275 5098,6265 5133,6255
 5168,6244 5204,6233 5239,6221 5275,6209 5311,6196 5348,6182 5384,6168 5421,6153
 5458,6137 5495,6121 5533,6104 5570,6086 5607,6068 5645,6049 5682,6030 5718,6010
 5755,5989 5791,5969 5827,5947 5862,5926 5896,5904 5930,5881 5963,5859 5995,5836
 6026,5813 6057,5790 6087,5767 6116,5744 6144,5720 6171,5697 6198,5673 6224,5649
 6250,5625 6275,5600 6300,5575 6324,5549 6348,5523 6372,5497 6395,5469 6419,5441
 6442,5412 6465,5382 6487,5352 6510,5321 6532,5289 6554,5256 6575,5223 6597,5189
 6617,5155 6637,5120 6657,5084 6676,5049 6695,5013 6712,4977 6729,4941 6745,4904
 6761,4868 6776,4832 6789,4797 6802,4761 6815,4726 6826,4691 6836,4657 6846,4623
 6855,4589 6863,4556 6870,4523 6877,4490 6882,4457 6888,4425 6892,4388 6897,4352
 6900,4315 6902,4278 6904,4240 6904,4202 6904,4164 6903,4125 6901,4086 6898,4046
 6894,4007 6889,3967 6882,3928 6875,3888 6867,3849 6858,3810 6849,3772 6838,3734
 6826,3697 6814,3661 6800,3626 6786,3591 6772,3558 6756,3526 6740,3496 6724,3466
 6707,3438 6689,3410 6671,3384 6652,3359 6633,3335 6613,3313 6592,3290 6570,3269
 6548,3248 6524,3228 6500,3209 6475,3190 6449,3173 6422,3155 6394,3139 6365,3123
 6336,3108 6305,3095 6274,3082 6243,3070 6211,3058 6179,3049 6146,3040 6114,3032
 6082,3025 6049,3020 6017,3015 5986,3012 5954,3010 5924,3009 5894,3009 5864,3010
 5835,3012 5807,3015 5779,3019 5752,3024 5726,3030 5700,3038 5676,3045 5652,3053
 5628,3063 5605,3073 5581,3085 5558,3097 5535,3111 5512,3125 5489,3141 5465,3158
 5443,3177 5420,3196 5397,3216 5375,3238 5353,3261 5331,3285 5310,3309 5289,3335
 5269,3361 5249,3389 5230,3417 5211,3445 5193,3475 5176,3504 5159,3535 5143,3565
 5128,3597 5113,3628 5099,3660 5086,3692 5073,3725 5061,3757 5049,3791 5038,3825
 5027,3858 5017,3891 5007,3926 4998,3961 4988,3997 4979,4033 4970,4071 4961,4109
 4952,4149 4943,4189 4933,4230 4924,4271 4915,4313 4906,4355 4897,4398 4887,4441
 4878,4484 4868,4527 4858,4570 4848,4612 4838,4654 4828,4696 4818,4737 4807,4777
 4797,4816 4786,4854 4775,4891 4764,4927 4752,4962 4740,4996 4728,5028 4716,5060
 4703,5090 4690,5120 4677,5148 4663,5175 4646,5205 4629,5233 4611,5261 4592,5287
 4572,5313 4551,5338 4529,5362 4506,5386 4482,5409 4457,5431 4431,5452 4404,5473
 4377,5492 4349,5511 4320,5529 4290,5546 4260,5562 4229,5577 4199,5591 4168,5604
 4136,5617 4105,5628 4074,5639 4043,5648 4012,5657 3981,5665 3951,5672 3920,5679
 3890,5685 3860,5691 3830,5695 3800,5700 3770,5704 3739,5708 3709,5711 3677,5714
 3645,5716 3612,5718 3577,5720 3541,5721 3503,5722 3464,5723 3422,5723 3379,5723
 3334,5723 3286,5722 3237,5721 3186,5720 3134,5718 3082,5717 3030,5715 2979,5713
 2930,5711 2885,5709 2843,5707 2806,5705 2775,5704 2750,5703 2730,5702 2716,5701
 2707,5700 2702,5700 2700,5700" fill="#000000"
	stroke="#000000" stroke-width="30px" stroke-linejoin="bevel"/>
<!-- Circle -->
<circle cx="6000" cy="3600" r="237" fill="#ffffff"
	stroke="#000000" stroke-width="135px"/>
</g>
</svg>
